<?xml version="1.0" encoding="UTF-8" standalone="no"?>
<!-- Created with Inkscape (http://www.inkscape.org/) -->

<svg
   xmlns:dc="http://purl.org/dc/elements/1.1/"
   xmlns:cc="http://creativecommons.org/ns#"
   xmlns:rdf="http://www.w3.org/1999/02/22-rdf-syntax-ns#"
   xmlns:svg="http://www.w3.org/2000/svg"
   xmlns="http://www.w3.org/2000/svg"
   xmlns:xlink="http://www.w3.org/1999/xlink"
   xmlns:sodipodi="http://sodipodi.sourceforge.net/DTD/sodipodi-0.dtd"
   xmlns:inkscape="http://www.inkscape.org/namespaces/inkscape"
   width="64"
   height="64"
   viewBox="0 0 16.933333 16.933334"
   version="1.1"
   id="svg8"
   enable-background="new"
   inkscape:version="0.91 r13725"
   sodipodi:docname="target.svg"
   inkscape:export-filename="target.png"
   inkscape:export-xdpi="90"
   inkscape:export-ydpi="90">
  <defs
     id="defs2">
    <linearGradient
       inkscape:collect="always"
       id="linearGradient4559">
      <stop
         style="stop-color:#fbfbfb;stop-opacity:1;"
         offset="0"
         id="stop4555" />
      <stop
         id="stop4255"
         offset="0.89999998"
         style="stop-color:#f0a1a1;stop-opacity:1" />
      <stop
         style="stop-color:#a70f0f;stop-opacity:1"
         offset="1"
         id="stop4557" />
    </linearGradient>
    <filter
       inkscape:collect="always"
       style="color-interpolation-filters:sRGB"
       id="filter4251">
      <feBlend
         inkscape:collect="always"
         mode="multiply"
         in2="BackgroundImage"
         id="feBlend4253" />
    </filter>
    <radialGradient
       inkscape:collect="always"
       xlink:href="#linearGradient4559"
       id="radialGradient4259"
       cx="5.3394384"
       cy="5.9364214"
       fx="5.3394384"
       fy="5.9364214"
       r="8.3343754"
       gradientUnits="userSpaceOnUse"
       gradientTransform="matrix(0.96428634,0.96428514,-0.89342491,0.89342491,6.2073428,-4.9293105)" />
  </defs>
  <sodipodi:namedview
     id="base"
     pagecolor="#ffffff"
     bordercolor="#666666"
     borderopacity="1.0"
     inkscape:pageopacity="0.0"
     inkscape:pageshadow="2"
     inkscape:zoom="8"
     inkscape:cx="49.673753"
     inkscape:cy="23.724703"
     inkscape:document-units="px"
     inkscape:current-layer="layer2"
     showgrid="false"
     units="px"
     inkscape:window-width="2498"
     inkscape:window-height="1417"
     inkscape:window-x="2054"
     inkscape:window-y="-8"
     inkscape:window-maximized="1"
     showguides="false" />
  <metadata
     id="metadata5">
    <rdf:RDF>
      <cc:Work
         rdf:about="">
        <dc:format>image/svg+xml</dc:format>
        <dc:type
           rdf:resource="http://purl.org/dc/dcmitype/StillImage" />
        <dc:title />
      </cc:Work>
    </rdf:RDF>
  </metadata>
  <g
     inkscape:label="Layer 1"
     inkscape:groupmode="layer"
     id="layer1"
     transform="translate(0,-280.06665)"
     sodipodi:insensitive="true">
    <circle
       r="8.3343754"
       cy="288.53333"
       cx="8.4666672"
       id="circle4522"
       style="opacity:1;fill:#fbfbfb;fill-opacity:1;stroke:none;stroke-width:0.26888442;stroke-linecap:round;stroke-linejoin:round;stroke-miterlimit:4;stroke-dasharray:none;stroke-opacity:1" />
    <circle
       r="8.3343754"
       cy="288.53333"
       cx="8.4666672"
       id="circle4522-5"
       style="opacity:1;fill:#fbfbfb;fill-opacity:1;stroke:none;stroke-width:0.26888442;stroke-linecap:round;stroke-linejoin:round;stroke-miterlimit:4;stroke-dasharray:none;stroke-opacity:1" />
    <path
       style="opacity:1;fill:#f24141;fill-opacity:1;stroke:none;stroke-width:0.26888442;stroke-linecap:round;stroke-linejoin:round;stroke-miterlimit:4;stroke-dasharray:none;stroke-opacity:1"
       d="M 32,0.5 A 31.5,31.5 0 0 0 0.5,32 31.5,31.5 0 0 0 32,63.5 31.5,31.5 0 0 0 63.5,32 31.5,31.5 0 0 0 32,0.5 Z M 32,7 A 25,25 0 0 1 57,32 25,25 0 0 1 32,57 25,25 0 0 1 7,32 25,25 0 0 1 32,7 Z"
       transform="matrix(0.26458334,0,0,0.26458334,-5.0465268e-7,280.06665)"
       id="circle4164"
       inkscape:connector-curvature="0" />
    <path
       style="opacity:1;fill:#f24141;fill-opacity:1;stroke:none;stroke-width:0.26888442;stroke-linecap:round;stroke-linejoin:round;stroke-miterlimit:4;stroke-dasharray:none;stroke-opacity:1"
       d="M 32,14 A 18,18 0 0 0 14,32 18,18 0 0 0 32,50 18,18 0 0 0 50,32 18,18 0 0 0 32,14 Z m 0,7 A 11,11 0 0 1 43,32 11,11 0 0 1 32,43 11,11 0 0 1 21,32 11,11 0 0 1 32,21 Z"
       transform="matrix(0.26458334,0,0,0.26458334,-5.0465268e-7,280.06665)"
       id="circle4166"
       inkscape:connector-curvature="0" />
    <circle
       style="opacity:1;fill:#f24141;fill-opacity:1;stroke:none;stroke-width:0.26888442;stroke-linecap:round;stroke-linejoin:round;stroke-miterlimit:4;stroke-dasharray:none;stroke-opacity:1"
       id="circle4172"
       cx="8.4666672"
       cy="288.53333"
       r="1.0583334" />
  </g>
  <g
     inkscape:groupmode="layer"
     id="layer2"
     inkscape:label="Layer 2"
     style="display:inline;opacity:0.5;filter:url(#filter4251)">
    <circle
       style="opacity:1;fill:url(#radialGradient4259);fill-opacity:1;stroke:none;stroke-width:0.26888442;stroke-linecap:round;stroke-linejoin:round;stroke-miterlimit:4;stroke-dasharray:none;stroke-opacity:1"
       id="circle4553"
       cx="8.4666672"
       cy="8.4666748"
       r="8.3343754" />
  </g>
  <g
     inkscape:groupmode="layer"
     id="layer3"
     inkscape:label="Layer 3"
     sodipodi:insensitive="true"
     style="display:inline">
    <circle
       style="opacity:1;fill:none;fill-opacity:1;stroke:#60150b;stroke-width:0.26888442;stroke-linecap:round;stroke-linejoin:round;stroke-miterlimit:4;stroke-dasharray:none;stroke-opacity:1"
       id="path4518"
       cx="8.4666672"
       cy="8.4666748"
       r="8.3343754" />
  </g>
</svg>
